<svg xmlns="http://www.w3.org/2000/svg" viewBox="0 0 623.66 376.83"><defs><style>.cls-1,.cls-2,.cls-3{fill:#ddb451;}.cls-2{font-size:83.34px;font-family:Syncopate-Bold, Syncopate;font-weight:700;}.cls-3{font-size:36px;font-family:Syncopate-Regular, Syncopate;}.cls-4{fill:none;stroke:#ddb451;stroke-miterlimit:10;}</style></defs><g id="Layer_2" data-name="Layer 2"><g id="Layer_2-2" data-name="Layer 2"><path class="cls-1" d="M228,130.48l-32-.2c-7.52.33-11.15-6.63-2.57-14.81l31.57-32.94-.93-40.83c-.11-5.25,2.41-7,6.55-7.06l21.59.13c3.44-.08,4.67,2.28,4.7,5.95l0,7.1,43.18-45.3c4.09-3.17,8.48-3.57,13.31.09l120.6,112c2.16,3.76,1.06,10.58-3,11.22l-35.22,1.26,1.08,65.69c-.45,8.42-4.66,13.53-11.63,14.72l-30.18-.19c13.43-12.87,23.08-29.28,21.65-56.07-5-33.62-28.4-56.29-66.5-58.1-30.18,0-63.66,27.07-63.12,64.4,1.47,23.28,13.1,42.66,26.31,51.34l-31.36-.19c-9.18-1-12.07-9.37-12-14.57Z"/><path class="cls-1" d="M274.09,143.24l.1-15.45c1.07-5,3.79-8,8.62-8.79l55.62-.92c5.32.59,8.79,2.33,10.23,8.43l.1,14.68c-10.72,1.14-16.3,8.38-15.24,21.66l-43.07.65C292,150.26,284.07,142.55,274.09,143.24Z"/><path class="cls-1" d="M265.75,188.18l-.78-31c.48-4.81,2.81-8.1,9.09-8.76,4.85-.41,8.56,1.34,10.82,5.88l.17,13.14,54.06.09.07-12.36c.87-5.57,4.12-8.26,9.54-8.33s8.54,2.72,10.37,6.84l1,33.56c-1.26,5.56-5.36,8-11,7.89l-.05,9c-2.15,2.62-5.58,2.56-7.25,0l.19-8.37-56.67.4-.07,9.07c-.42,2.89-6.75,2.66-7.05,0l0-8.56C270.86,197.67,266.51,194.6,265.75,188.18Z"/><text class="cls-2" transform="translate(1.38 311.82)">CRAFTMEN</text><text class="cls-3" transform="translate(121.04 368.34)">ARTE MOBILIARIO</text><line class="cls-4" y1="327.3" x2="614.91" y2="327.3"/></g></g></svg>