<svg xmlns="http://www.w3.org/2000/svg" viewBox="0 0 679.97 382.94"><defs><style>.cls-1,.cls-2{fill:#fff;}.cls-2,.cls-3{stroke:#fff;stroke-miterlimit:10;}.cls-3{fill:none;}</style></defs><g id="Layer_2" data-name="Layer 2"><g id="Layer_2-2" data-name="Layer 2"><path class="cls-1" d="M256.18,130.48l-32-.2c-7.52.33-11.15-6.63-2.57-14.81l31.57-32.94L252.3,41.7c-.11-5.25,2.41-7,6.55-7.06l21.59.13c3.44-.08,4.67,2.28,4.7,5.95l0,7.1,43.17-45.3c4.1-3.17,8.49-3.57,13.32.09l120.6,112c2.16,3.76,1.06,10.58-3,11.22L424,127.07,425,192.76c-.45,8.42-4.66,13.53-11.63,14.72l-30.18-.19c13.43-12.87,23.08-29.28,21.65-56.07-5-33.62-28.4-56.29-66.5-58.1-30.18,0-63.66,27.07-63.12,64.4,1.47,23.28,13.1,42.66,26.31,51.34l-31.36-.19c-9.18-1-12.07-9.37-12-14.57Z"/><path class="cls-1" d="M302.24,143.24l.1-15.45c1.07-5,3.79-8,8.62-8.79l55.62-.92c5.32.59,8.79,2.33,10.23,8.43l.1,14.68c-10.72,1.14-16.3,8.38-15.24,21.66l-43.07.65C320.16,150.26,312.22,142.55,302.24,143.24Z"/><path class="cls-1" d="M293.9,188.18l-.78-31c.48-4.81,2.81-8.1,9.09-8.76,4.85-.41,8.56,1.34,10.82,5.88l.17,13.14,54.06.09.07-12.36c.87-5.57,4.12-8.26,9.54-8.33s8.54,2.72,10.37,6.84l1,33.56c-1.26,5.56-5.36,8-11,7.89l-.05,9c-2.15,2.62-5.58,2.56-7.25,0l.19-8.37-56.67.4-.07,9.07c-.42,2.89-6.75,2.66-7.06,0l0-8.56C299,197.67,294.66,194.6,293.9,188.18Z"/><path class="cls-2" d="M60,310.19c-2,.65-4,1.22-6.14,1.69a60.51,60.51,0,0,1-6.7,1.08,74.18,74.18,0,0,1-7.54.36,63.64,63.64,0,0,1-15.73-1.83A37,37,0,0,1,11.47,306a25.93,25.93,0,0,1-8.08-9.2,30.15,30.15,0,0,1,0-25.76,25.9,25.9,0,0,1,8.08-9.19,36.79,36.79,0,0,1,12.37-5.52,63.64,63.64,0,0,1,15.73-1.83,71.29,71.29,0,0,1,7.54.37,56.15,56.15,0,0,1,6.7,1.08A62.14,62.14,0,0,1,60,257.62q3,1,5.9,2.19V273.4q-2.31-1.26-4.88-2.5a43.92,43.92,0,0,0-5.66-2.24A49.43,49.43,0,0,0,48.52,267a50,50,0,0,0-8.34-.64,40.32,40.32,0,0,0-11.83,1.47,20.69,20.69,0,0,0-7.5,3.91,13.41,13.41,0,0,0-4,5.59,19.06,19.06,0,0,0-1.14,6.53,19.83,19.83,0,0,0,.49,4.42,14,14,0,0,0,1.63,4.11,15,15,0,0,0,3,3.56,17.19,17.19,0,0,0,4.55,2.81,30.11,30.11,0,0,0,6.37,1.85,46.6,46.6,0,0,0,8.41.67,53.77,53.77,0,0,0,8.34-.59,46.84,46.84,0,0,0,6.79-1.57A42.55,42.55,0,0,0,61,297q2.56-1.24,4.88-2.55V308Q62.93,309.22,60,310.19Z"/><path class="cls-2" d="M95,311.82H79.93V255.91h37.85a36.78,36.78,0,0,1,10.35,1.26,18.18,18.18,0,0,1,6.92,3.58,13.45,13.45,0,0,1,3.87,5.59,21.15,21.15,0,0,1,1.2,7.31,17.34,17.34,0,0,1-1,6.18,14.25,14.25,0,0,1-2.68,4.54,16.26,16.26,0,0,1-3.93,3.2,27.21,27.21,0,0,1-4.72,2.15l18.31,22.1H128.44l-16.93-20.59H95Zm29.83-38.25a7.79,7.79,0,0,0-.43-2.77A3.77,3.77,0,0,0,123,269a7.48,7.48,0,0,0-2.83-1,24.8,24.8,0,0,0-4.42-.32H95v12H115.7a24.69,24.69,0,0,0,4.42-.33,7.48,7.48,0,0,0,2.83-1,3.84,3.84,0,0,0,1.48-1.86A7.77,7.77,0,0,0,124.86,273.57Z"/><path class="cls-2" d="M201.85,301.24H170.68l-5.25,10.58H148.58l29.26-55.91h16.85L224,311.82H207.1Zm-25.76-10.91h20.43l-10.17-20.59Z"/><path class="cls-2" d="M248.2,267.83v9.72h36.34v11.93H248.2v22.34H233.1V255.91h53.43v11.92Z"/><path class="cls-2" d="M330.77,268.07v43.75h-15.1V268.07H292V255.91h62.58v12.16Z"/><path class="cls-2" d="M416,271.65c-1.06-.51-2.46-1.09-4.19-1.75s-3.71-1.26-5.9-1.85a68.41,68.41,0,0,0-7.16-1.46,51.79,51.79,0,0,0-7.94-.59c-2.17,0-4,.07-5.55.2a34.3,34.3,0,0,0-3.87.53,12.18,12.18,0,0,0-2.48.75,5.84,5.84,0,0,0-1.41.88,2.29,2.29,0,0,0-.63.89,2.88,2.88,0,0,0-.14.82A2.64,2.64,0,0,0,378,272.2a11.94,11.94,0,0,0,3.34,1.63,48.32,48.32,0,0,0,4.92,1.34q2.81.63,6,1.31t6.52,1.46q3.35.8,6.51,1.85a46.21,46.21,0,0,1,6,2.47,22.41,22.41,0,0,1,4.92,3.27,14.43,14.43,0,0,1,3.34,4.31,12.38,12.38,0,0,1,1.22,5.58,15.53,15.53,0,0,1-1.43,6.92,14.86,14.86,0,0,1-3.8,4.88,19.31,19.31,0,0,1-5.51,3.19,38.69,38.69,0,0,1-6.58,1.86,55.58,55.58,0,0,1-7,.85c-2.34.14-4.57.2-6.69.2A81.06,81.06,0,0,1,374.33,312a76.59,76.59,0,0,1-12.47-3.4V295.22a51.31,51.31,0,0,0,12.71,4.84,64.42,64.42,0,0,0,15.28,1.75,49,49,0,0,0,7.84-.51,19.15,19.15,0,0,0,4.74-1.3,5.48,5.48,0,0,0,2.32-1.73,3.37,3.37,0,0,0,.61-1.79,3,3,0,0,0-1.22-2.34,11.16,11.16,0,0,0-3.34-1.75,43,43,0,0,0-4.92-1.39c-1.88-.42-3.86-.84-6-1.26s-4.27-.87-6.5-1.36-4.38-1.07-6.49-1.73a47.31,47.31,0,0,1-6-2.32,22,22,0,0,1-4.92-3.13,14,14,0,0,1-3.34-4.19,12,12,0,0,1-1.22-5.52,14.49,14.49,0,0,1,1.3-6.39,14,14,0,0,1,3.52-4.58,18.74,18.74,0,0,1,5.13-3.07,35.58,35.58,0,0,1,6.12-1.83,52.68,52.68,0,0,1,6.52-.89q3.29-.25,6.26-.25,3.26,0,6.7.33c2.29.21,4.55.52,6.77.91s4.38.85,6.45,1.37,4,1.05,5.76,1.62Z"/><path class="cls-2" d="M506,311.82V272.55l-20.75,39.27H470.79L450,272.55v39.27h-15.1V255.91h20.51L478,298.23l22.58-42.32h20.43v55.91Z"/><path class="cls-2" d="M538.55,311.82V255.91h56.6v11.92h-41.1v9.24h39V289h-39V299.9h41.67v11.92Z"/><path class="cls-2" d="M663.11,311.82,625.39,273.4v38.42h-15.1V255.91h16.4l37.76,38.57V255.91h15v55.91Z"/><path class="cls-1" d="M190.67,382.46l-3.32-6.38H171l-3.32,6.38h-2.41l12.64-24.15h2.58l12.64,24.15Zm-11.51-22L172,374.08h14.26Z"/><path class="cls-1" d="M200,372.13v10.33h-2.19V358.31h12a22.25,22.25,0,0,1,4.73.43,9,9,0,0,1,3.22,1.3,5.18,5.18,0,0,1,1.84,2.17,7.36,7.36,0,0,1,.58,3,6.36,6.36,0,0,1-1.42,4.34,7.88,7.88,0,0,1-4.59,2.22l8.24,10.65h-2.76l-7.78-10.4-1,.05-1,0Zm18-6.88a5,5,0,0,0-.55-2.5,3.53,3.53,0,0,0-1.77-1.49,10.86,10.86,0,0,0-3.23-.71c-1.33-.12-3-.18-4.9-.18H200v9.7h7.43c1.93,0,3.57-.06,4.91-.17a11.1,11.1,0,0,0,3.25-.68,3.65,3.65,0,0,0,1.81-1.46A4.92,4.92,0,0,0,218,365.25Z"/><path class="cls-1" d="M237.6,360.31v22.15h-2.18V360.31h-11v-2h24.15v2Z"/><path class="cls-1" d="M253.33,382.46V358.31h20.12v2.06H255.72v8.31h16.84v2H255.72v9.73h18v2Z"/><path class="cls-1" d="M324.75,382.46V361.91l-13.27,20.55h-2l-13.29-20.63v20.63H294V358.31h2.35l14.17,21.88,14-21.88h2.34v24.15Z"/><path class="cls-1" d="M364,370.4a12.56,12.56,0,0,1-1.18,5.62,10.68,10.68,0,0,1-3.23,3.9,13.85,13.85,0,0,1-4.85,2.28,23.61,23.61,0,0,1-6,.74,24,24,0,0,1-6.06-.74,14,14,0,0,1-4.88-2.28,10.64,10.64,0,0,1-3.25-3.9,12.42,12.42,0,0,1-1.18-5.62,13.1,13.1,0,0,1,.55-3.93,11.28,11.28,0,0,1,1.52-3.16,10.51,10.51,0,0,1,2.38-2.42,14.09,14.09,0,0,1,3.11-1.69,17.77,17.77,0,0,1,3.68-1,25,25,0,0,1,4.13-.33,23.61,23.61,0,0,1,6,.74,14,14,0,0,1,4.85,2.27,10.8,10.8,0,0,1,3.23,3.91A12.51,12.51,0,0,1,364,370.4Zm-2.25,0a11.44,11.44,0,0,0-.84-4.53,8.65,8.65,0,0,0-2.47-3.32,11.19,11.19,0,0,0-4.07-2,20.47,20.47,0,0,0-5.66-.7,21,21,0,0,0-5.67.7,11.57,11.57,0,0,0-4.11,2.05,8.59,8.59,0,0,0-2.49,3.32,12.47,12.47,0,0,0,0,9.05,8.49,8.49,0,0,0,2.49,3.31,11.24,11.24,0,0,0,4.11,2,23.27,23.27,0,0,0,11.33,0,11,11,0,0,0,4.07-2,8.54,8.54,0,0,0,2.47-3.31A11.49,11.49,0,0,0,361.77,370.4Z"/><path class="cls-1" d="M394.41,375.8a7.16,7.16,0,0,1-.37,2.44,5.52,5.52,0,0,1-1,1.79,5.12,5.12,0,0,1-1.58,1.21,9.36,9.36,0,0,1-2,.74,15.45,15.45,0,0,1-2.37.38c-.85.07-1.72.1-2.62.1H370.47V358.31h13.62c.69,0,1.38,0,2.08.09a12.71,12.71,0,0,1,2,.32,8.38,8.38,0,0,1,1.78.66,4.79,4.79,0,0,1,1.42,1.11,5.14,5.14,0,0,1,.95,1.65,6.86,6.86,0,0,1,.34,2.29,6.28,6.28,0,0,1-.29,2,3.78,3.78,0,0,1-.88,1.47,4.45,4.45,0,0,1-1.5,1,10.06,10.06,0,0,1-2.14.63,10.7,10.7,0,0,1,3,.59,5.77,5.77,0,0,1,2,1.27,4.84,4.84,0,0,1,1.16,1.89A7.63,7.63,0,0,1,394.41,375.8Zm-3.81-11.32a8.74,8.74,0,0,0-.07-1,3.16,3.16,0,0,0-.32-1,3,3,0,0,0-.71-.86,4.13,4.13,0,0,0-1.28-.7,10.37,10.37,0,0,0-2-.45,21.13,21.13,0,0,0-2.86-.17h-10.7v8.41h10.7a16.74,16.74,0,0,0,3.8-.35,5.91,5.91,0,0,0,2.19-.91,2.73,2.73,0,0,0,1-1.35A5.5,5.5,0,0,0,390.6,364.48Zm1.51,11.28a5.22,5.22,0,0,0-.48-2.34,3.81,3.81,0,0,0-1.46-1.58,7.2,7.2,0,0,0-2.53-.9,20.45,20.45,0,0,0-3.67-.29h-11.3v9.81h11.6a22.57,22.57,0,0,0,3.7-.26,6.72,6.72,0,0,0,2.42-.82,3.21,3.21,0,0,0,1.32-1.47A5.16,5.16,0,0,0,392.11,375.76Z"/><path class="cls-1" d="M400.6,382.46V358.31h2.19v24.15Z"/><path class="cls-1" d="M410.93,382.46V358.31h2.2v22.1h17.65v2Z"/><path class="cls-1" d="M436.18,382.46V358.31h2.19v24.15Z"/><path class="cls-1" d="M468.63,382.46l-3.32-6.38h-16.4l-3.32,6.38h-2.41l12.64-24.15h2.58L471,382.46Zm-11.51-22L450,374.08h14.26Z"/><path class="cls-1" d="M478,372.13v10.33h-2.2V358.31h12a22.25,22.25,0,0,1,4.73.43,9.13,9.13,0,0,1,3.23,1.3,5.16,5.16,0,0,1,1.83,2.17,7.36,7.36,0,0,1,.58,3,6.36,6.36,0,0,1-1.42,4.34,7.88,7.88,0,0,1-4.59,2.22l8.25,10.65h-2.76l-7.79-10.4-1,.05-1.06,0Zm17.94-6.88a5.06,5.06,0,0,0-.54-2.5,3.6,3.6,0,0,0-1.78-1.49,10.86,10.86,0,0,0-3.23-.71c-1.33-.12-3-.18-4.9-.18H478v9.7h7.42c1.94,0,3.57-.06,4.91-.17a11.25,11.25,0,0,0,3.26-.68,3.67,3.67,0,0,0,1.8-1.46A4.92,4.92,0,0,0,495.92,365.25Z"/><path class="cls-1" d="M505.77,382.46V358.31H508v24.15Z"/><path class="cls-1" d="M545.07,370.4A12.56,12.56,0,0,1,543.9,376a10.81,10.81,0,0,1-3.24,3.9,13.77,13.77,0,0,1-4.85,2.28,23.58,23.58,0,0,1-6,.74,23.84,23.84,0,0,1-6.06-.74,14,14,0,0,1-4.89-2.28,10.73,10.73,0,0,1-3.25-3.9,12.56,12.56,0,0,1-1.17-5.62,13.43,13.43,0,0,1,.54-3.93,11,11,0,0,1,1.53-3.16,10.31,10.31,0,0,1,2.38-2.42A13.86,13.86,0,0,1,522,359.2a17.6,17.6,0,0,1,3.68-1,25,25,0,0,1,4.13-.33,23.58,23.58,0,0,1,6,.74,13.93,13.93,0,0,1,4.85,2.27,10.93,10.93,0,0,1,3.24,3.91A12.51,12.51,0,0,1,545.07,370.4Zm-2.25,0a11.62,11.62,0,0,0-.83-4.53,8.65,8.65,0,0,0-2.47-3.32,11.24,11.24,0,0,0-4.08-2,20.4,20.4,0,0,0-5.65-.7,21.06,21.06,0,0,0-5.68.7,11.52,11.52,0,0,0-4.1,2.05,8.52,8.52,0,0,0-2.5,3.32,12.61,12.61,0,0,0,0,9.05,8.42,8.42,0,0,0,2.5,3.31,11.19,11.19,0,0,0,4.1,2,21.06,21.06,0,0,0,5.68.7,20.78,20.78,0,0,0,5.65-.7,11.1,11.1,0,0,0,4.08-2,8.54,8.54,0,0,0,2.47-3.31A11.67,11.67,0,0,0,542.82,370.4Z"/><line class="cls-3" x1="0.5" y1="329.66" x2="679.46" y2="329.66"/></g></g></svg>