<svg xmlns="http://www.w3.org/2000/svg" viewBox="0 0 326.12 28.26"><defs><style>.cls-1{fill:#fff;}</style></defs><g id="Layer_2" data-name="Layer 2"><g id="Layer_2-2" data-name="Layer 2"><path class="cls-1" d="M28.56,26.76c-.95.31-1.94.58-2.95.81a28.13,28.13,0,0,1-3.22.52,34.55,34.55,0,0,1-3.63.17,30.37,30.37,0,0,1-7.55-.88,17.55,17.55,0,0,1-5.94-2.64,12.46,12.46,0,0,1-3.88-4.42A13.11,13.11,0,0,1,0,14.13,13,13,0,0,1,1.39,8,12.37,12.37,0,0,1,5.27,3.53,17.76,17.76,0,0,1,11.21.88,30.37,30.37,0,0,1,18.76,0a34.45,34.45,0,0,1,3.63.18,28.16,28.16,0,0,1,3.22.51c1,.23,2,.5,2.95.81s1.89.67,2.83,1.06V9.09c-.74-.41-1.52-.81-2.35-1.2a20.67,20.67,0,0,0-2.71-1.08A23.09,23.09,0,0,0,23.06,6a24.15,24.15,0,0,0-4-.3,19.37,19.37,0,0,0-5.68.7A10,10,0,0,0,9.77,8.31,6.35,6.35,0,0,0,7.88,11a9.07,9.07,0,0,0-.55,3.14,10,10,0,0,0,.23,2.12,6.78,6.78,0,0,0,.79,2,7.1,7.1,0,0,0,1.42,1.71A8.32,8.32,0,0,0,12,21.29a14.28,14.28,0,0,0,3.06.88,22,22,0,0,0,4,.33,25.35,25.35,0,0,0,4-.29,21.89,21.89,0,0,0,3.27-.75A20.69,20.69,0,0,0,29,20.4c.83-.4,1.61-.81,2.35-1.23V25.7C30.45,26.09,29.51,26.45,28.56,26.76Z"/><path class="cls-1" d="M45.41,27.54H38.15V.68H56.33a17.87,17.87,0,0,1,5,.61A8.76,8.76,0,0,1,64.63,3,6.53,6.53,0,0,1,66.49,5.7a10.26,10.26,0,0,1,.57,3.51,8.41,8.41,0,0,1-.48,3,7,7,0,0,1-1.29,2.18,8,8,0,0,1-1.88,1.53,13.31,13.31,0,0,1-2.27,1l8.8,10.61H61.45l-8.13-9.89H45.41ZM59.73,9.17a4,4,0,0,0-.2-1.33A1.84,1.84,0,0,0,58.81,7a3.5,3.5,0,0,0-1.35-.5,12.51,12.51,0,0,0-2.13-.16H45.41V12h9.92a11.56,11.56,0,0,0,2.13-.16,3.67,3.67,0,0,0,1.35-.49,1.89,1.89,0,0,0,.72-.89A4,4,0,0,0,59.73,9.17Z"/><path class="cls-1" d="M96.71,22.46h-15l-2.52,5.08H71.13L85.18.68h8.09l14.06,26.86H99.24ZM84.34,17.22h9.81L89.27,7.33Z"/><path class="cls-1" d="M119,6.41v4.67h17.45v5.73H119V27.54h-7.26V.68h25.67V6.41Z"/><path class="cls-1" d="M168.33,8.25q-.77-.37-2-.84a28.35,28.35,0,0,0-2.84-.89A32.48,32.48,0,0,0,160,5.81a26.48,26.48,0,0,0-3.81-.28c-1,0-1.93,0-2.67.1a16.37,16.37,0,0,0-1.85.25,5.75,5.75,0,0,0-1.2.37,2.42,2.42,0,0,0-.67.42.92.92,0,0,0-.3.42,1.18,1.18,0,0,0,.51,1.42,5.49,5.49,0,0,0,1.61.78,22.12,22.12,0,0,0,2.36.65l2.87.62c1,.22,2.05.45,3.12.71s2.12.55,3.13.89A22.24,22.24,0,0,1,166,13.34a11,11,0,0,1,2.37,1.57A6.7,6.7,0,0,1,170,17a5.89,5.89,0,0,1,.59,2.67,7.44,7.44,0,0,1-.69,3.33,7.11,7.11,0,0,1-1.82,2.34,9.5,9.5,0,0,1-2.65,1.54,18.19,18.19,0,0,1-3.16.88,26.51,26.51,0,0,1-3.34.42c-1.13.06-2.2.09-3.22.09a39.67,39.67,0,0,1-7.38-.65,37.83,37.83,0,0,1-6-1.63V19.57a24.65,24.65,0,0,0,6.11,2.32,30.84,30.84,0,0,0,7.34.84,23.88,23.88,0,0,0,3.76-.24,9.29,9.29,0,0,0,2.28-.63,2.61,2.61,0,0,0,1.12-.83,1.61,1.61,0,0,0,.29-.86,1.42,1.42,0,0,0-.59-1.12,5.29,5.29,0,0,0-1.6-.84,20.5,20.5,0,0,0-2.37-.67c-.9-.2-1.85-.4-2.86-.6s-2-.42-3.12-.66-2.1-.51-3.11-.83a23.76,23.76,0,0,1-2.87-1.11,10.49,10.49,0,0,1-2.36-1.51,6.74,6.74,0,0,1-1.61-2,5.75,5.75,0,0,1-.58-2.65,7.06,7.06,0,0,1,.62-3.07,6.78,6.78,0,0,1,1.69-2.2,8.93,8.93,0,0,1,2.47-1.47,16.42,16.42,0,0,1,2.94-.88A25.07,25.07,0,0,1,153,.12C154,0,155,0,156,0s2.11.05,3.21.16,2.19.25,3.26.44,2.1.4,3.09.65,1.92.51,2.77.78Z"/><path class="cls-1" d="M192.47,6.53v21h-7.25v-21h-11.4V.68h30.06V6.53Z"/><path class="cls-1" d="M242.82,27.54V8.68l-10,18.86h-7l-10-18.86V27.54h-7.25V.68h9.85L229.37,21,240.22.68H250V27.54Z"/><path class="cls-1" d="M258.44,27.54V.68h27.18V6.41H265.88v4.44h18.73v5.73H265.88v5.23h20v5.73Z"/><path class="cls-1" d="M318.27,27.54,300.15,9.09V27.54H292.9V.68h7.87l18.14,18.53V.68h7.21V27.54Z"/></g></g></svg>