<svg xmlns="http://www.w3.org/2000/svg" viewBox="0 0 593.85 577"><g id="Layer_2" data-name="Layer 2"><g id="Layer_7" data-name="Layer 7"><path d="M4,577C2.68,568.69.27,560.39.21,552.08c-.36-48.4-.15-96.8-.16-145.19,0-39.87,8.6-51.62,46.79-63.05.24-2.95,1.06-6.25.71-9.41-4.81-43.38,18.74-68.06,64.79-65.66,44.3,2.31,88.86-.51,133.24,1,17.49.6,34.8,6.8,51.7,10.35,16.53-3.4,34.5-9.68,52.67-10.32,44.38-1.55,88.84-.51,133.27-.48,47.75,0,62.57,14.88,62.88,63,0,3.28,0,6.57,0,11.08,6.27,2.12,12.46,3.74,18.26,6.28,18,7.85,29,21.61,29.15,41.32.57,57,.3,114,0,171,0,5-2.47,10-3.79,15ZM526.61,344.9c0-10.37.25-18.93-.05-27.47-.64-18.39-11.13-28.71-28.72-28.92-54.31-.68-108.63-.49-162.95,0-16.06.15-27.23,9.85-27.73,25.62-1.21,38-.39,76.06-.39,111.13H478.54C477.84,391.36,475.25,353.33,526.61,344.9Zm-239.5,80.43c0-34.45.55-71.5-.23-108.52-.38-17.94-11.37-28.13-29.33-28.29-53.64-.48-107.29-.7-160.93-.15-18.84.19-28.66,11.33-29.53,30.3-.38,8.48-.06,17-.06,26.24,51.53,7.86,49.05,46.65,48.3,80.42ZM115.8,555.39H477.17v-36H115.8Zm-20.24.37c0-54,.23-105.7-.1-157.38-.16-24.94-11.19-33.53-40.69-33.22-25.45.27-35.45,9.62-35.56,34.08q-.3,70.62-.06,141.24c0,5,1.08,10,1.69,15.28Zm478.51-.19c0-56.66.84-112.16-.49-167.6-.41-17.12-15.11-23.13-42-22.94-17.6.12-32.05,7.09-32.53,24.86-1.51,54.79-.55,109.64-.55,165.68Zm-95.32-57.89V479.3c0-28.77-8.76-37.6-38.17-37.73-33.82-.14-67.64.11-101.45,0-16.77-.05-28.6,7.25-31.8,23.82-1.93,10-.35,20.76-.35,32.3ZM115,497.6H287.18c0-9.88.5-18.38-.1-26.81-1.26-17.77-10.84-28.66-28.93-28.94-38.44-.6-76.92-.81-115.36.1-16.73.39-26.55,10.9-27.74,28C114.46,478.42,115,487,115,497.6Z"/><path d="M296.94,230.62c-44.42,0-88.84-.47-133.24.23-15.47.24-20.75-4.9-20.56-20.71.79-62.95.91-125.92,0-188.87C142.9,3.8,150.05-.08,165.55,0c87.5.46,175,.63,262.5,0,17.43-.12,22.83,5.69,22.56,23.13-.93,62.29-.8,124.6,0,186.89.19,15.64-4.79,21.08-20.4,20.83C385.77,230.17,341.35,230.64,296.94,230.62ZM430.05,21H164.39V210H430.05Z"/><path d="M298.66,29.51c34.47,0,69,.39,103.43-.19,14.28-.24,20.2,4.57,20,19.55-.67,45.06-.44,90.14-.1,135.21.1,12.48-4.5,18.17-17.44,18.12q-107.4-.37-214.82,0c-12.39,0-18-4.71-17.89-17.69q.62-68.61,0-137.21c-.14-12.88,4.76-17.89,17.47-17.77,36.46.36,72.93.13,109.4.13ZM401.72,49.92H192.8V181.86c2.74-.48,4.51-.25,5.14-1,10.35-12.1,20.57-24.31,30.79-36.52,19.09-22.81,19.08-22.82,41-1.87,12.72-15.23,25.62-30.22,38-45.66,9.32-11.67,16.82-12.58,26.12.58,17.22,24.36,35.47,48,53.41,71.87,3.53,4.68,7.57,9,14.48,17.11Zm-33.4,133.63,2.42-4.78c-16.42-21.77-32.84-43.54-50.32-66.7l-38.08,45.82C303.09,199.73,339.74,176,368.32,183.55Zm-92.72-1.88-26.83-31.52-26.48,31.52Z"/><path d="M248.59,115.26C232.73,115,219.55,101.49,220,86s14.35-28.15,30.22-27.47c14.77.64,27.5,13.63,27.68,28.23C278.12,102,264.13,115.53,248.59,115.26Z"/></g></g></svg>