<svg xmlns="http://www.w3.org/2000/svg" viewBox="0 0 599 533.8"><g id="Layer_2" data-name="Layer 2"><g id="Layer_3" data-name="Layer 3"><path d="M130.47,533.8c-12.36-7.91-17-18.89-16.84-33.79.65-53.47.14-106.94.32-160.42.08-26.6,11.11-37.46,37.85-37.85,13.18-.2,26.36,0,41.6,0,0-32.12-.16-62,0-92,.18-27,10.65-38.09,37.28-38.19q125.32-.44,250.66,0c26,.08,37,11.93,37.21,38.74.21,29.38,0,58.76,0,91.48,14.56,0,28.26-.21,42,0,25.81.48,37.89,12.49,38,38.42.22,50.8-.52,101.61.37,152.4.3,16.44-3.45,29.94-15.26,41.2H559.65c-28.66-22.36-8.44-55.4-17.91-82.69H166.87c0,16.36-.75,31.6.21,46.73,1,15.4-3.61,27.39-16.56,36Zm451-135.75c1-3.38,1.68-4.61,1.69-5.84.13-15.35.23-30.7.2-46,0-26.75-2.84-29.52-30.14-29.53q-197.22,0-394.46,0c-4,0-9.1-1.49-11.79.41-6.79,4.78-17.11,10.6-17.78,16.88-2.23,20.88-.84,42.15-.84,64.14ZM217.21,303.88l8.06-3.84c0-5.84-.09-11.69,0-17.53.49-29.37,10.46-39.26,40.08-39.62,12.68-.15,25.37-.1,38.05,0,34.66.2,43.24,8.95,43.7,44.19.06,4.48.77,8.95,1.18,13.34,15.63-.27,15.63-.27,15.94-16.65.6-30.82,10.31-40.52,41.13-40.92,10-.13,20,0,30,0,43.3,0,48.6,4.45,51.12,46.82.79,13.26,6.22,13.86,17.22,9.69,0-31.74.11-63,0-94.33-.07-13.4-8.21-19.27-20.57-19.29q-127.19-.26-254.36-.08c-13.66,0-21.18,7-21.24,21-.13,28-.5,56.1.36,84.11C208,295.16,214,299.48,217.21,303.88ZM128.09,433.67H583.6c-.54-7.23-1-12.85-1.43-19.16H129.42C129,420.86,128.59,426.48,128.09,433.67ZM471,301c.34-5.46.73-9.34.79-13.21.43-26.61-3.07-30.27-29.11-30.36-14.61-.05-29.23-.17-43.84.09-12.69.22-19.76,6.56-19.78,19.72,0,7.69,0,15.38,0,23.76Zm-140.34-.23c4.49-40.05,1.62-43.32-36.25-43.34h-18c-36.3,0-41.47,6.33-34.39,43.35ZM559.1,449.65c0,20.37-.79,38.23.51,55.94.36,4.89,6.95,9.32,10.69,14,4.36-4.76,12-9.22,12.47-14.32,1.56-17.63.6-35.47.6-54.32Zm-430.85,1.2c0,19.4-.82,38,.6,56.44.34,4.38,8.2,8.17,12.6,12.24,3.53-4.19,9.84-8.21,10.11-12.61,1.15-18.4.48-36.92.48-56.07Z"/><path d="M355.05,137.77c-44,0-88.07-.45-132.09.26-13.82.22-18.79-3.89-18.4-18.14.91-33.34.85-66.72.05-100.06C204.27,5.52,208-.12,223.56,0Q355.65,1,487.74,0c14.68-.09,20,3.92,19.56,19.15-1,32.65-1.06,65.39,0,98,.53,15.69-4.14,21.19-20.21,20.86C443.12,137.18,399.08,137.77,355.05,137.77ZM491.17,16.53H220.33V121.91c17.69,4.39,31.52,2.3,43.71-12.06C277,94.64,292.59,81.77,306.36,67.23c8.56-9,14.86-8.33,22.88.75,13.08,14.8,27.1,28.75,39.89,42.18,17.18-11.88,33.06-31.47,47.13-30.24,14.86,1.29,27.2,23.51,42.19,34.46,8.44,6.17,20,8.06,32.72,12.83ZM320.35,80,275,122.07h84.93Zm94.07,13.83-34.5,28.71h65.14Z"/><path d="M71,230.9V512l25.44,7.33C82.42,531.74,48,532.73,28,521.12l26.08-9.83a126,126,0,0,0,1.17-13.15Q55.4,373,55.1,247.79c0-5.82-3.08-11.69-5.29-17.32-.18-.46-6.8.44-7,1.34A86.23,86.23,0,0,0,41.22,251c.13,3,4.44,6,4.14,8.74-.53,4.81-1.86,11.15-5.21,13.55s-11.33,2.6-14,.17c-3.48-3.16-5.43-10-5-15.05.74-8.63,3.83-17.06,6.31-27.09-7.91-.61-12.47-.8-17-1.33-9.37-1.1-13.08-5.2-8.48-14.8,8.62-18,15.93-36.74,25.61-54.16,3.08-5.56,11.69-10.84,18.14-11.31,46.25-3.38,46.28-3,65.88,40,18.18,39.8,18.18,39.78-24.75,40.45C82.27,230.14,77.69,230.54,71,230.9Zm33.79-15.7c-11.76-45.53-17.33-51.66-46.91-51-34.16.71-23.26,34.28-42,51Z"/><path d="M395.34,56.35c-2,15-9.26,25.61-25.32,25.18-15.86-.42-24-10.79-23.79-26.24.21-15.6,9.3-25.74,24.72-25.44S394,41.08,395.34,56.35Z"/></g></g></svg>