<svg xmlns="http://www.w3.org/2000/svg" viewBox="0 0 523.9 598.96"><g id="Layer_2" data-name="Layer 2"><g id="Layer_1-2" data-name="Layer 1"><path d="M349.9,599c-12.28-7.41-18-17.83-19.58-32.56-3.11-28.38-8.63-56.48-12.85-84.75-5.15-34.5-3.29-36.95,32.61-43.4-11-25-2.1-55.56-26.84-76.94-8.17-7.07-14.73-10.5-24.86-10.47q-114.12.35-228.23.19c-27.47,0-31.31-4-31.32-31.92,0-66.93-.29-133.87.38-200.79.07-6.8,5.41-19,9.06-19.33C61.47,97.92,58,109.91,58,117.65c.24,64.5.15,129,.17,193.49v22.22H79c71.21,0,142.41.12,213.61-.28,6.41,0,17.38-2.16,18.38-5.6,3.54-12.19,9.69-30.12,4-37.31-18.13-22.91-22.49-42.2-.11-63.75,1.56-1.51.54-5.7.72-8.52-32.35-8.2-63.18,1.46-79.88,28.89-22.43,36.85-54.45,49.7-95.65,46.07a263.06,263.06,0,0,0-41.91-.55c-4.34.31-8.28,6.31-12.4,9.71q1.56,2.75,3.13,5.48h21.5c55.38,0,110.76-.19,166.14.45,5.29.06,10.51,5.39,15.77,8.27-5.08,3-10.13,8.59-15.24,8.64-64.5.6-129,.23-193.53.56-12.14.06-15.72-5.18-15.69-16.57q.41-134.16,0-268.33c0-11.85,4.54-16.45,16-16.43q117.76.22,235.53,0c13.11,0,16.26,6,16.17,18.05-.45,59-.2,117.92-.2,177.67,6.74.84,12.65,1.39,18.49,2.34,25.4,4.09,37.61,18.4,40.78,43.61,1.29,10.23,7.21,19.88,12.61,33.94,6.36-10.83,9.16-16.21,12.52-21.2,19.7-29.25,60.65-35.57,88.35-13.75,18,14.21,21.11,35,6.81,52.81-8.07,10-17.31,18.72-14.22,33.68.48,2.32-5.81,8.51-8.88,8.44-3.45-.07-10-5.75-9.65-8,2-12,3.79-24.89,9.63-35.21,5.94-10.49,17.49-18.79,8.68-32-8.59-12.9-23.12-18.55-36.8-13.52-11.45,4.2-23.39,13.31-29.78,23.56-9.77,15.67-20.24,28.42-38,34.46-14.71,5-21.36,12.62-10.21,28,8.9,12.29,7.38,25.07-3,36.62-3.64,4.05-8.4,8.27-9.54,13.14C370.84,416.36,368,427.46,371,436c1.4,4.07,15.58,3.73,25.64,5.72.2-47.82,13.7-88,42.76-122,6.7-7.85,14.14-25,26.43-14.61,13.31,11.3-5.86,17.79-11.31,24.9C430,362,416.37,397.11,417,439h24.14c-.69-7.43-1.2-14.38-2-21.3-2.78-24.26,13.53-44,37.41-44.09,3.75,0,7.52,4.45,11.28,6.84-2.24,3.24-4.07,8.86-6.8,9.34-23.58,4.16-25,20-20.29,38.28,1.32,5.17,5.83,11.17,10.52,13.5,10.83,5.39,15.83,13,14.09,24.7C479.88,503,475,539.75,468.06,576.16c-1.57,8.31-10.39,15.24-15.88,22.8ZM88.08,275c18.41,0,34.93-1.3,51.17.27,34.7,3.37,61.89-6.23,79.87-38.13,12.4-22,32.9-33.58,57.71-37.17,12.43-1.8,25-2.75,39-4.25,0-46.3-.52-91.81.31-137.29.26-13.87-4.18-17.51-17.62-17.38-64.47.63-128.95.25-193.43.34-5.77,0-11.55.81-17,1.22Zm246.4,184c5.66,38.63,10.6,75.16,16.89,111.46.73,4.22,8.85,9.94,13.76,10.16,23.62,1,47.33,1,70.94-.1,4.55-.21,11.89-6.35,12.68-10.7,6.55-36.24,11.87-72.7,17.84-110.82ZM365.13,387c2.09-5.79,6.49-11.62,5.48-16.26-4.38-19.93-10.59-39.46-15.47-59.3-.78-3.18.77-8.94,3.13-10.35,2.85-1.7,8.85-1.51,11.44.49,4,3.13,6.35,8.48,10.1,13.92l9.73-4.16c-5.3-17.49-10.88-32.84-14.47-48.64S357,236.28,339.75,238.8c-20.39,3-26.81,17.39-13.25,32.89,12.76,14.59,15.57,29.58,8,46.89-6.12,14-2.33,25.61,7.26,36.79C349.59,364.48,356.13,374.68,365.13,387Z"/><path d="M17.49,599c.41-8.13-.63-16.66,1.48-24.34,11-40.21,22.84-80.21,34.6-121.07-7.28-1-13.29-1.36-19.12-2.61-21.12-4.54-35.56-21-34.38-38.82,1.25-18.91,18-35,39.63-35.79,25.52-1,51.1-.4,76.66-.44,28,0,56-.1,84,0,28.56.11,47.26,14.17,48.44,36.17s-15.15,36.71-44.69,40.19c-2.32.27-4.59.94-8,1.66,11.84,41.48,23.81,82.14,34.76,123.07,1.8,6.71-.86,14.62-1.45,22h-11c-4.89-15.55-9.57-31.16-14.78-46.6-1.68-5-3.74-12.57-7.33-13.75-24.13-7.92-48.75-19.94-73.16-19.84-23.77.11-49.82,9.32-70.28,22-10.65,6.58-11.43,29.17-16.59,44.55-1.51,4.52-2.78,9.12-4.16,13.68ZM123.75,393.69c-25,0-49.91-.19-74.86.06-18.8.19-29.53,7.87-28.29,20.76,1.57,16.4,13.51,20,27.55,19.95q76.68,0,153.36,0c14.27,0,26.84-4.33,27.22-20.19.39-16.21-12.14-20.65-26.48-20.61C176.08,393.72,149.92,393.67,123.75,393.69ZM69,478.24c37.61,21.66,75,21.06,112.14-.22-.2-19.69-8.34-28.36-29-26.22-18.59,1.92-37.53.38-56.32.41C71.25,452.25,71.25,452.27,69,478.24ZM55.48,518.47l38.71-11.69-32-9.35Zm138.66-.07c-2.95-9-4.76-14.6-7-21.42L156,506.93Z"/><path d="M58.15,16.93c0,17.69.69,33.51-.42,49.22C57.41,70.75,52,75,48.91,79.4c-3.33-4.16-9.24-8.13-9.55-12.5-1.13-16.33-.61-32.8-.37-49.21C39.16,5.89,45.37,0,57.33,0q144.12,0,288.24,0c13.11,0,18.83,7.18,18.86,19.34.15,56.54.31,113.08-.38,169.62-.06,4.67-6.4,9.26-9.82,13.89-3.07-5.08-8.74-10.11-8.81-15.23-.71-50.45-.49-100.91-.53-151.37V16.93Z"/><path d="M149.22,53.86c-21.68-.09-39.69,15.53-39.78,34.49-.08,18.55,18.65,35.3,39.48,35.32s39.78-16.64,39.74-35C188.61,69.52,171,54,149.22,53.86Zm.28,50.7c-7-.69-17.5-9.86-18.37-16.43-.78-5.86,9.49-13.19,19-25,8.54,12.29,17.56,19.63,17.06,26.25C166.76,95.29,155.27,105.12,149.5,104.56Z"/></g></g></svg>