<svg xmlns="http://www.w3.org/2000/svg" viewBox="0 0 600 599.45"><g id="Layer_2" data-name="Layer 2"><g id="Layer_2-2" data-name="Layer 2"><path d="M274.06,599.45q-.93-69-1.85-138.06c-.15-12.54,0-25.08,0-39.63-34.4,0-67.05.13-99.71-.05-22.37-.12-22-.94-22.88-33.28-.46-17.26,5-23.33,22.88-23.17q127.5,1.2,255,0c17.35-.15,25.28,4.9,22.94,22.77a61,61,0,0,0,0,14c1.51,15-5.31,20.15-19.92,19.87-33.34-.64-66.7-.2-104.12-.2V599.45ZM429.63,401.92c4.12-13.59.11-18.33-12.9-18.27-77.6.38-155.2.09-232.8.27-14.94,0-14.94.56-11.82,18Zm-121,177.36V423.12l-4.66-3.58c-4.43,4.24-12.64,8.41-12.72,12.74-.92,48.7-.58,97.42-.58,147Z"/><path d="M40.67,599.45c-1-7.17-2.87-14.34-2.89-21.51-.22-75.63.28-151.25-.49-226.87-.18-17.23,4.71-23.8,22.65-23.54,53.37.76,42.82-2.06,43.74,44.21.41,20.73.4,41.47.68,62.2,0,1.18,1,2.34,2.67,6.05,27.41,0,56,.73,84.51-.27,17.58-.61,25.63,4.23,24.85,23.59-1.83,45.34-1.9,90.75-2.69,136.14H201.63c-1.42-8.38-3.86-16.74-4.08-25.14-.57-22.43-.19-44.87-.19-67.07H56.68c0,12.41.45,23.66-.1,34.86-.95,19.13-2.52,38.23-3.83,57.35ZM196.54,458.88c-30.42,0-58.56-1.26-86.52.41-21,1.25-26.71-6.54-25.63-26.48,1.53-28.41.39-57,.39-85.18H58.23V485.82H196.54Z"/><path d="M386.73,599.45c-.77-48.75-2-97.5-1.52-146.24.05-4.45,11.27-12.31,17.56-12.59,30-1.33,60.18-.59,94-.59,0-28.77.11-56.54,0-84.31s-.24-27.6,27.62-27.86c44.09-.41,38.36-1.83,38.46,39.1q.24,103.44-.08,206.88c0,8.54-1.92,17.07-2.94,25.61H547.68l-6.07-92.1H403.12c0,12.47.5,23.71-.11,34.9-1,19.08-2.77,38.13-4.21,57.2ZM542.12,485.92V347.76H515.65c0,30-1,58.74.36,87.32.89,18.44-5,25-23.74,24.14-29.16-1.36-58.43-.36-88.2-.36v27.06Z"/><path d="M310.72,65.22V92.51C318,92.92,324.5,93,331,93.7c24.84,2.79,42.76,20.17,43.59,44.53,1,30.11,1,60.31-.24,90.4-.21,5.12-8.74,14-13.63,14.16-40.17,1.19-80.38.7-120.58.76-11.18,0-15-5.65-14.77-16.49.47-26.11,0-52.25.13-78.37.18-36.77,16.24-53.2,53.65-55.25,3.2-.18,6.38-.65,10.46-1.08V65.22h-21.8c-80.41,0-160.82-.52-241.21.42C7.11,65.86-.91,61.6.08,40.21,2.17-4.92-5.95.19,41.54.16Q306.88,0,572.21.09c27.71,0,27.85.07,27.64,27.5-.31,40.52,5.93,37.6-37.58,37.61l-227.15,0ZM579.85,20.29H20.49V45.85H579.85ZM244.58,224.92c34.88,0,67,.49,99-.58,4.38-.15,11.91-8,12.15-12.53,1.22-23.36.9-46.84.37-70.26-.4-17.3-10-27.83-27.25-28.72a541,541,0,0,0-58.22.12c-15.2.85-25.35,10-25.83,25.6C244,166.49,244.58,194.46,244.58,224.92Z"/></g></g></svg>