<svg xmlns="http://www.w3.org/2000/svg" viewBox="0 0 600 599.64"><g id="Layer_2" data-name="Layer 2"><g id="Layer_6" data-name="Layer 6"><path d="M84.71,599.64c.52-22.36-.1-44.81,1.81-67,3.13-36.65,7.9-73.16,12.13-111.13-6.33-1.29-11.32-2.35-16.33-3.3C34.12,409-.41,366.43,0,318.14c.11-12.84,4.31-18.52,17.34-18.24,19.85.42,39.71.11,55.49.11C56.18,275.27,34,251.66,22.74,223.66-1.95,162.08,6.84,102,49.2,49.85,114-29.89,230.33-10.92,273.88,85.49c34.36,76.06,14.75,157.32-55.19,214.65,23.5,0,42.93.65,62.28-.21,15.56-.7,19.5,6.41,19.06,20.62-1.68,53.76-34,87.9-98.48,100.81,3.39,30.76,7.26,61.73,10.07,92.8,2.57,28.44,4,57,5.93,85.48Zm45.1-302.86c36.15,7.27,65.65-2.09,91.17-24.41,60-52.52,65.91-151.94,13-212.19C187.15,6.94,114,6.54,66.8,59.27c-52.06,58.2-48.22,156.25,8.79,209.61,9.12,8.54,20.64,14.51,34.3,23.9,0-18.21-.94-31,.24-43.55,1.54-16.47,10.53-27.34,28-28.82,16.95-1.44,33.07.54,39.47,19.42,1.72,5.07-1.58,11.84-2.58,17.82-4.9-2.63-9.74-5.39-14.72-7.87-6.43-3.21-13.19-8.87-19.38-8.36-4.08.33-9.86,9.36-10.59,15.05C128.7,268.94,129.81,281.77,129.81,296.78Zm148,24.05H21.58c-3.26,14.57,2,19.82,15.52,19a160,160,0,0,1,32.09.79c3.93.56,7.13,6.25,10.66,9.6-3.77,3-7.31,8.24-11.35,8.66-11.56,1.18-23.32.41-36.92.41,17,25.45,35.15,38.55,58.86,39.26,39.53,1.19,79.21,2,118.67-.08C249.51,396.36,279.84,360.71,277.76,320.83Zm-79,257.67c-6-53.5-11.85-105.6-17.86-159.16-18.31,0-34.35-.83-50.21.51-4.63.39-12,6.57-12.57,10.79C112,479.53,107,528.55,101.62,578.5Z"/><path d="M339.8,140.46c0-37.53-.18-75.05,0-112.58C340,6.47,346.07.2,367.33.14q102.53-.3,205.06,0c21.27,0,27.31,6.22,27.35,27.67.13,75.05-.2,150.11.26,225.16.11,18.86-8.24,27-26.47,27-69-.05-138,.25-207.07-.07-20.41-.1-26.62-7.56-26.64-28.88Q339.79,195.74,339.8,140.46Zm238.65,58.68v-178H480.79v178ZM360.9,20.51V199.08h97.21V20.51ZM578.75,259V221.53H361V259Z"/><path d="M379.69,371.83c-11.79-3.11-20-4.1-21.2,10.22-.22,2.66-5.25,6.77-8.13,6.84s-6.73-3.48-8.87-6.39c-3.88-5.26-4.11-40.05-.29-45.3,2.13-2.92,6.49-7,8.72-6.44,3.63,1,6.27,5.46,9.44,8.33,5,4.49,10,8.87,17.05,15.09C385,314,390.35,309.84,426.69,309.8q34.2,0,68.4,0c34.25.05,40.26,5,46.84,38.78,9.52,2.2,18.19,4.19,18.9-10.88.12-2.54,8.95-7.49,9.83-6.74a314.64,314.64,0,0,1,28.16,27.34c.89,1-2.84,6.45-4.79,9.61-.55.9-2.73.68-3.56,1.55-6.06,6.39-12,12.92-17.94,19.4-5.83-6.23-11.07-13.25-17.78-18.31-2.78-2.1-8.74,0-15,.3,0,29.62,0,58.34,0,87.05,0,38.69,0,38.69-37.44,43.07-7,27.09-9.7,29.14-38.26,29-18.11-.09-36.21,0-54.31-.2-24-.26-29.9-5.85-30.06-29.5-.23-36.2-.05-72.42,0-108.62Zm99.23-41.92c-22.38,0-43.74-1-64.89.69-5.13.4-13.65,9.27-13.75,14.37-1,54.06-.62,108.15-.62,163.64h79.26Zm39.64,148.77V369.75l-17.63,1.62V478.68Z"/><path d="M182.79,46.72c2.37,7.7,6.24,13.55,4.93,17.82-1.58,5.18-7.37,9.2-11.61,13.45-30.68,30.8-61.16,61.8-92.44,92-4.59,4.42-13.1,4.78-19.8,7,1.7-6.63,1.3-15.28,5.43-19.57,32-33.27,64.76-65.74,97.45-98.31C170.42,55.44,175,52.68,182.79,46.72Z"/><path d="M79.31,109.44c-1.9-1.19-6-2.33-6.88-4.69-1.22-3.09-1.46-8.55.44-10.58C86.14,80,99.79,66.12,114.09,53c2.27-2.09,9.13-1.23,12.51.68,2,1.13,3.17,8.73,1.55,10.45-14.15,15.08-29,29.51-43.74,44C83.6,109,81.89,108.83,79.31,109.44Z"/><path d="M112.61,361.69q-5.86-6.29-11.74-12.56c5.08-3.11,10.06-8.41,15.26-8.64,4.26-.2,12,5.23,12.47,8.91.76,5.79-3.28,12.21-5.29,18.36Z"/><path d="M504.59,95.74l14.74,13.94c-4.71,3.48-9.37,9.61-14.15,9.7s-9.52-5.93-14.28-9.28Z"/><path d="M436.35,97.91l13.29,11.51c-4.73,3.58-9.4,9.89-14.2,10-5.08.11-13.48-4.84-14.63-9.13-1.43-5.37,3.05-12.31,5-18.58Z"/></g></g></svg>