<svg xmlns="http://www.w3.org/2000/svg" viewBox="0 0 595.46 595"><defs><style>.cls-1{fill:#020202;}.cls-2{fill:#101010;}</style></defs><g id="Layer_2" data-name="Layer 2"><g id="Layer_5" data-name="Layer 5"><path class="cls-1" d="M578.66,250.19c-23.25.52-46.58-.87-69.77.45-15.71.89-22.52-3.21-19.81-19.78,3.06-18.73-8.12-20.9-22.32-17-5.73,1.57-11,5.29-16.12,8.51-11.69,7.31-42.18-2-46.75-15-3.28-9.32-1.78-15.22,10.83-14.89,28.72.74,57.49-.38,86.21.36,19.47.5,26.89-8,26.64-27q-.89-69.78,0-139.59C527.8,7.74,519.5,0,501.71,0Q373.42.18,245.12,0c-16.87,0-25.5,7.6-25.49,24.63,0,47.9,0,95.8.09,143.7,0,16.66,7.85,24.86,25.33,24.49,28.73-.62,57.48-.32,86.21,0,4.71.06,11.81-3.41,13.65,4.53,1.47,6.36-.42,13.28-6,16.44-19,10.8-42,15.21-54.49,36-.74,1.24-5.2.28-7.93.28-30.11,0-60.23-.55-90.31.37-12.28.37-14.45-4.15-14.31-15.21.58-45.84-.14-91.7.48-137.54.2-14.71-4.19-21.15-19.87-20.73-32.14.86-64.32.77-96.47.06C41.91,76.8,36.71,81.48,36.94,96c.73,45.83-.22,91.7.62,137.53.25,13.22-3.1,19-16.69,16.82-16-2.63-21,3.6-20.87,20.29C.78,378.76.4,486.88.4,595H53.79c6.28-20,2.49-40.46,2.51-60.66,0-11.9,3.81-14.88,15-14.5,22.41.76,44.9,1.09,67.28,0,12.47-.63,13.84,4.42,14.32,15,.92,20.07-4.68,40.59,3.58,60.2h53.39c.1-82.72.52-165.44,0-248.16-.09-14.1,1.63-20.06,18.26-19.74,62.2,1.19,124.43.83,186.65.22,12.75-.12,18.45,2.27,17,16.44-1.62,16.14,4.95,37.51-3.21,47.38-8.6,10.4-30.67,2.76-46.84,3.15-23.23.56-46.49.31-69.74.07-35.26-.37-59.12,23.33-53.25,67.75,1.28,9.68,8.14,9.47,15.16,9.47,19.14,0,38.32.67,57.42-.23,12.36-.59,15.25,4.23,13.63,15.46a105.53,105.53,0,0,1-15.36,41.86c-3.91,6.21-8.65,10.27-16.42,10-14.85-.62-27.14,4-33.35,18.52C273,573,282.47,584.12,292,595H456.26c9-11.15,18.18-22.48,11.41-38.09-6.32-14.58-19.1-17.11-33.61-18.64-21.67-2.29-23.46-22.38-28.32-37.76-8.42-26.6-6.13-28.75,21.3-28.85,62.16-.23,62.15-.23,62.1-63.28,0-21.89.51-43.8-.18-65.68-.34-10.59,1.18-15.44,13.83-15.47,34.81-.08,34.73-.79,34.83,33.83q.32,117,.78,233.94h53.39c1.16-4.54,3.33-9.07,3.34-13.61.21-104.7.08-209.4.33-314.1C595.49,255.16,591.14,249.91,578.66,250.19Zm-340-132c.94-28,.88-56,0-84-.36-11.89,3.61-14.72,15-14.66q119.88.63,239.74-.13c12.93-.1,16.07,3.63,15.61,16.18-1,28-1,56,0,84,.49,13.07-3.91,15.95-16.19,15.72-39.6-.74-79.23-.27-118.84-.27s-79.25-.65-118.84.37C241.2,135.73,238.23,131.07,238.66,118.17Zm14.6,54.8c-5.54-.05-14,4.32-14.57-8-.58-12.66,7.45-10.45,14.62-10.46,79.94,0,159.88-.12,239.81.19,6.24,0,15.94-3.88,15.87,9.39-.07,13.54-9.78,8.77-16,8.83-39.62.37-79.25.19-118.88.19C333.85,173.15,293.56,173.31,253.26,173Zm75.23,67.64c19.92-5.86,34.58-16.61,35.62-39.23.34-7.56,3.84-9,10.26-8.86,5.48.13,8.73,1.08,9,7.81.83,23.61,15.82,34.76,36.71,40.6,4.44,1.24,12-.24,10.43,8.7H312.92C316.71,242.32,323.14,242.18,328.49,240.61ZM56.51,104c1.63-8.46,6.71-7.11,11.79-7.14,24.47-.13,49,.65,73.39-.34,14.27-.58,12,9,10.45,15.9-1.76,7.82,9.16,22.29-9.83,22.54-12.91.18-25.83,0-38.74,0q-11.22,0-22.43,0C56.56,135,51.8,128.39,56.51,104Zm81.18,146.56c-11.38-1.41-23.07-.26-34.62-.27-8.83,0-17.75-.78-26.48.15-14.9,1.6-20.85-2.08-20.68-19.22.17-16.72,5.52-20.14,20.57-19.24,20.31,1.21,40.86,1.65,61.09-.08,16.27-1.39,15.62,7.32,15,18.15C152.08,240.21,156.45,252.89,137.69,250.56ZM137.1,193a663.5,663.5,0,0,0-67.64,0c-18.72.95-11.82-12-12.62-20.61-.89-9.49-2.57-19.75,13.36-18.07,11.5,1.21,23.22.24,34.84.26,8.2,0,16.55,1,24.58-.17,18.39-2.74,25,3.6,23.49,22.74C152.18,189.27,150.08,193.68,137.1,193ZM26.94,578c-14.33-.69-9.1-11.29-9.18-18.12-.46-35.5-.22-71-.22-106.5,0-36.87-.08-73.74.07-110.61,0-6.83-3-15.15,9.69-15.57,13.05-.43,9.93,7.94,9.94,14.79q.13,109.58-.06,219.16C37.16,568.28,41.44,578.72,26.94,578Zm111.57-77.38c-11.57-.73-23.22-.17-34.84-.17-47,.06-47,.06-47-47.7,0-4.79.49-9.64-.11-14.35-1.42-11.17,2-16,14.35-15.44,22.51.94,45.11.76,67.64.08,10.32-.3,14.81,2.08,14.2,13.44a451.31,451.31,0,0,0,.05,51.23C153.57,499.56,148.38,501.25,138.51,500.64Zm14-124.81c.24,28.71.06,28.7-29.2,28.7-17.07,0-34.21-.89-51.2.34-13.31,1-17.19-4.16-15.51-16.32.56-4,.09-8.19.09-12.29,0-48.65,0-48.65,47.91-49.37,15.47.78,36.89-4.2,44.75,3.93C157.39,339.12,152.4,360.29,152.53,375.83ZM181.35,578c-11.39.07-9.15-7.56-9.17-14-.09-36.85,0-73.7-.05-110.55q0-56.3,0-112.6c0-6.34-2.53-13.65,9.18-13.53,11.32.11,9.52,7.08,9.53,13.63q.1,111.57.06,223.14C190.92,570.87,192.28,577.94,181.35,578ZM415.13,308.38c-63.6-1.09-127.23-.44-190.85-.43-62.94,0-125.88-.68-188.79.46-16.88.31-18.31-6.28-18.42-20.13-.1-13.54,2.23-18.8,17.53-18.72q190.85,1,381.71-.11c18-.13,14.73,9.34,15.44,20C432.59,302,431.3,308.66,415.13,308.38Zm36-47.81c0-11.77,5-20.51,18.6-27.68,0,52.25-.06,101.23.07,150.2,0,6.85-.32,11.56-9.52,11.52s-9.49-4.67-9.45-11.53C451.05,342.24,451,301.4,451.12,260.57Zm-15.74,297.5c7.2,0,14.9.63,14.86,9.65-.05,8.62-7.31,10.2-14.79,10.19-41.54-.08-83.08,0-124.62-.07-7.46,0-14.51-2.1-13.8-10.92.56-7.14,6.94-9,13.73-8.92,21.11.16,42.22.06,63.33.08C394.52,558.1,415,558.14,435.38,558.07ZM348.2,538.22c8.77-19.53,16.19-38.33,16-58.83-.09-8.68,5.52-7.46,11-7.81,6.26-.39,7.93,2.1,8.07,8.28.44,20,5.86,38.77,17.8,58.36Zm107.43-86.05c-28.05-.3-56.09-.08-84.14-.08V452c-26.67,0-53.37-.71-80,.28-14.7.54-16-5.47-12.47-17.16,3.81-12.61,12.15-20.49,24.88-20.63,52-.6,104,0,156-.6,13.08-.15,10.17,8.14,9.69,14.94C468.83,438.66,474.14,452.37,455.63,452.17Zm76.07-144.3V308c-8.15,0-16.47-1-24.42.22-16,2.54-18.42-4.38-18.72-18.91-.33-16,3.93-21.07,19.93-19.72a290.62,290.62,0,0,0,52.93,0c17.64-1.75,14.42,9.33,14.08,19-.32,9,5,21.76-13.25,19.53C552.21,306.85,541.89,307.87,531.7,307.87ZM575.55,561c0,6.73,5,17.56-9.81,17-14.26-.52-9.4-10.85-9.47-17.85-.35-36.16-.16-72.33-.16-108.5,0-35.49-.24-71,.21-106.45.09-6.77-5.19-17.12,9.33-17.82,15.11-.74,9.86,9.95,9.88,16.6Q576,452.46,575.55,561Z"/><path class="cls-1" d="M101,348.28c-11.19.26-17.63-3.87-17.72,10.5-.08,15,11.67,6.45,19.79,9.79,4.24-1.81,17.3,5.22,18.33-8.71C122.44,345.41,114.61,348,101,348.28Z"/><path class="cls-2" d="M102.9,445.78c-6.58.16-18.64-7.77-19.82,8-1.16,15.39,10.31,10.07,18.49,11.45,6.39-3.34,19.89,7.2,20.1-10.37C121.86,438.58,109.3,445.62,102.9,445.78Z"/></g></g></svg>