<svg xmlns="http://www.w3.org/2000/svg" viewBox="0 0 599.67 596"><g id="Layer_2" data-name="Layer 2"><g id="Layer_4" data-name="Layer 4"><path d="M7.44,596c-1.3-7.72-3.7-15.44-3.74-23.17-.31-62.64-.17-125.28-.18-187.92,0-27.13,0-27.11,27.67-27.62,3.25-.06,6.5-.48,9.21-.69C43.07,344,42.15,329,49.2,321.31c5.52-6.05,20.91-3.09,32.93-4.24V336c-10.18,1.73-24.41,1.12-17,20.08H102.5V319.36l19.75-1.5v36.06c32.83,8.21,40.26,5.34,38.78-14.52L143.75,336V320.24c35-6.3,35.45-5.94,40.47,35.72H399.57c.3-6.63.89-13.66.89-20.68.08-64.64.48-129.29-.25-193.92C400,124.86,405.28,119,422,119.28c52.64.77,105.31.59,158,0,14.67-.17,19.76,4.85,19.72,19.72-.44,145.94-.24,291.88-.48,437.83,0,6.39-2.43,12.79-3.72,19.18Zm570.67-20.62V280.08H421.71v295.3Zm.17-318V140.53H421.38v116.8ZM200.81,575V438.23H24.52V575ZM322.63,437.91V574.82h76.66V437.91ZM300.31,575.49V437.92H223.87V575.49ZM200.91,416V378.53H24.42V416Zm22.31-.17H399.45V378.38H223.22Z"/><path d="M63.19,88.3c0-17.7.43-44.23-.19-70.74C62.7,4.45,68.14-.23,80.74.06c21.27.49,42.57.63,63.83,0,14.34-.45,18.54,6.39,18.32,19.45-.44,25.24-.13,50.49-.13,70.31,20.11,18.66,39.71,32.58,53.12,51,7.1,9.76,4.94,27.51,3.43,41.27-.34,3-15.69,6.12-24.15,6.21-54.53.55-109.07.29-163.6.26C5.7,188.52-9,166.14,6.12,144.84,20.09,125.21,40.55,110.21,63.19,88.3ZM24.43,167.61H201.07c.47-18.86-24.76-47.59-42.33-47.91-30.6-.55-61.23-.46-91.84,0C49.17,120,24.14,148.23,24.43,167.61ZM84.43,21V97.86h57V21Z"/><path d="M261.89.08l19.86,1.47c0,56.75.2,112.49-.16,168.22-.08,11.74.73,20.46,12.93,27.73,7.85,4.67,13.59,16.34,16,25.95,5,19.88,0,24.71-20.85,24.87-12.64.09-25.34-.82-37.89.23-18.21,1.53-23.18-8.3-19.34-23,2.55-9.75,7.11-22.26,14.74-26.68,14.42-8.36,15-19.12,14.91-32.92C261.6,111.55,261.89,57.15,261.89.08Zm28.25,227.18,2.67-5.5c-7.57-4.39-15.17-12.18-22.72-12.13-6.54.05-13,9-19.54,14l2.86,3.65Z"/><path d="M331.28,1.2H349.2c.62,2.26,1.87,4.72,1.88,7.18.13,28.61.35,57.22-.09,85.83-.15,10,1.75,16.72,11.47,22.54C369.7,121.1,376,130,378.78,138.2c7.68,22.58,1.37,30.29-22.27,30.46-10,.06-20,0-29.95,0-24.63,0-30.51-7.82-22.88-31.43,1.77-5.49,4.7-12.94,9.1-14.83,22.62-9.71,18.48-28.94,18.49-46.91C331.3,51,331.28,26.54,331.28,1.2Zm26.58,146.36,3.75-5.49c-6.85-4.26-13.74-11.9-20.53-11.82s-13.61,7.84-20.41,12.24l2.58,5.07Z"/><path d="M441.68,318.93H459v35.2C440.92,363.52,437.77,356.66,441.68,318.93Z"/><path d="M459,177.29v40.58H440.65c0-11.65-1.16-22.75.75-33.3C441.94,181.59,451.47,180.23,459,177.29Z"/><path d="M112.09,556.27c-16.61,0-33.23-.47-49.82.15-13.12.48-19.74-3.53-19.17-18,.83-21.22.52-42.51,0-63.75-.31-12.58,4.47-18.2,17.43-18.06q51.81.58,103.63,0c12.36-.14,18.67,4.16,18.49,17.19-.29,21.91-.1,43.83.05,65.75.09,11.45-4.77,17.07-16.8,16.77-17.92-.45-35.87-.12-53.8-.12Zm-48-21.08h97V477.76h-97Z"/><path d="M360,488.43v36.79H342.87C338.18,489,338.7,487.75,360,488.43Z"/><path d="M258.34,490c27.52-7.49,23.23,7.84,23.29,19,.05,8.11.57,22.83-10.76,16.14C262.87,520.46,262.46,502.88,258.34,490Z"/><path d="M329.91,388.68c1,21.14,0,21.58-37.13,17.14-.31-5.13-.64-10.57-1-17.14Z"/></g></g></svg>